<?xml version="1.0" standalone="no"?>
<!DOCTYPE svg PUBLIC "-//W3C//DTD SVG 20010904//EN"
 "http://www.w3.org/TR/2001/REC-SVG-20010904/DTD/svg10.dtd">
<svg version="1.0" xmlns="http://www.w3.org/2000/svg"
 width="512.000000pt" height="512.000000pt" viewBox="0 0 512.000000 512.000000"
 preserveAspectRatio="xMidYMid meet">
<metadata>
Created by potrace 1.14, written by Peter Selinger 2001-2017
</metadata>
<g transform="translate(0.000000,512.000000) scale(0.100000,-0.100000)"
fill="#000000" stroke="none">
<path d="M4355 4840 c-82 -22 -332 -84 -555 -140 -223 -55 -419 -105 -436
-111 -17 -5 -40 -11 -50 -14 -47 -9 -1989 -497 -2534 -636 -52 -13 -110 -19
-187 -19 l-113 0 0 -1775 c0 -1513 2 -1781 14 -1810 8 -18 33 -47 57 -64 l42
-31 1964 0 1965 0 38 21 c21 12 47 38 59 59 l21 38 0 1461 0 1461 -1599 0
-1600 0 -45 59 c-51 66 -58 82 -36 86 21 4 155 38 465 116 149 38 551 139 895
225 344 85 645 162 670 169 25 8 56 17 70 19 14 3 97 23 185 46 88 22 169 42
180 45 22 5 43 10 390 97 462 116 450 112 448 134 -1 10 -9 48 -18 84 -8 36
-18 76 -21 90 -2 14 -8 34 -11 45 -4 11 -7 22 -8 25 -9 43 -18 81 -26 105 -18
61 -57 222 -58 243 -1 15 10 17 -166 -28z"/>
</g>
</svg>
